<?xml version="1.0" encoding="UTF-8"?>
<svg width="20px" height="21px" viewBox="0 0 20 21" version="1.1" xmlns="http://www.w3.org/2000/svg" xmlns:xlink="http://www.w3.org/1999/xlink">
    <!-- Generator: Sketch 49.3 (51167) - http://www.bohemiancoding.com/sketch -->
    <title>Group 3</title>
    <desc>Created with Sketch.</desc>
    <defs>
        <polygon id="path-1" points="0 0 20 0 20 21 0 21"></polygon>
    </defs>
    <g id="Page-1" stroke="none" stroke-width="1" fill="none" fill-rule="evenodd">
        <g id="Contact---Vordem" transform="translate(-843.000000, -1254.000000)">
            <g id="Group-3" transform="translate(843.000000, 1254.000000)">
                <mask id="mask-2" fill="white">
                    <use xlink:href="#path-1"></use>
                </mask>
                <g id="Clip-2"></g>
                <path d="M0,6.21021146 C0.00984451458,6.07134819 0.0173726728,5.93248492 0.0277962765,5.79362165 C0.0857051857,5.03129063 0.262327359,4.29729906 0.572719113,3.59561445 C0.819990155,3.03619384 1.14428005,2.52324992 1.54211425,2.05564911 C1.81544431,1.73484662 2.12178244,1.44691788 2.45244231,1.18222748 C2.73561687,0.956078724 3.0101051,0.719160981 3.28806787,0.486210759 C3.47569274,0.328643455 3.67489938,0.189780184 3.90595593,0.0985271779 C4.30900194,-0.060740492 4.69757072,-0.0227656383 5.07282045,0.182411929 C5.44691201,0.388723075 5.73298202,0.689121171 5.99762573,1.01219082 C6.35550279,1.44918503 6.64331007,1.93152235 6.95196456,2.40082353 C7.1783884,2.74543116 7.39786316,3.09287273 7.57738078,3.46355264 C7.75805658,3.83990045 7.90282885,4.22701724 7.94741871,4.64360705 C8.00822307,5.21889775 7.85650172,5.73410882 7.45461389,6.15806689 C7.22471552,6.4017861 6.95543909,6.60979761 6.70700987,6.83764673 C6.4666879,7.05926118 6.19162058,7.23666609 5.92581869,7.42483999 C5.60558242,7.65268912 5.35889047,7.93721712 5.25581261,8.32206676 C5.17010742,8.64343604 5.1926919,8.96423854 5.26971074,9.28390746 C5.37336769,9.71863451 5.56272983,10.1193542 5.78510004,10.506471 C6.17714335,11.1905852 6.65894548,11.8123526 7.17028115,12.412582 C7.65497872,12.9827716 8.16226076,13.5331235 8.71297449,14.0420999 C9.17392941,14.4683252 9.6574688,14.8667777 10.2104989,15.1756777 C10.5376842,15.3587505 10.8799259,15.5032816 11.2569129,15.5542926 C11.745085,15.6206069 12.1712946,15.4857112 12.5390161,15.1705766 C12.6131395,15.1065294 12.6890002,15.0424823 12.7521209,14.9687997 C13.0341373,14.6440297 13.3694299,14.3753718 13.6983525,14.1021796 C13.8859774,13.9463126 14.0759186,13.7898789 14.2843907,13.6657521 C14.8055708,13.357419 15.3638127,13.3296463 15.9382691,13.507618 C16.4067522,13.6532828 16.8271709,13.8907673 17.2082115,14.1871979 C17.67322,14.5476756 18.1220141,14.9279909 18.5748617,15.3026384 C18.8956771,15.5678956 19.1985407,15.8501564 19.4620262,16.1709589 C19.6890292,16.4469851 19.8807076,16.7411485 19.9635174,17.0908572 C19.9774155,17.1498033 19.9884182,17.2093161 20,17.2688289 L20,17.4853423 C19.9930509,17.5176492 19.9861019,17.550523 19.9797319,17.5833967 C19.9108203,17.9399069 19.70756,18.2187671 19.441179,18.4573852 C19.1817471,18.6909022 18.9043634,18.9040148 18.6530388,19.1449001 C18.095376,19.6805155 17.465327,20.1078743 16.7536265,20.4218754 C16.0430842,20.7358764 15.2989547,20.9183824 14.5212381,20.9733609 C14.390943,20.9818628 14.260648,20.9909314 14.1297739,21 L13.8257521,21 C13.7962185,20.9965993 13.766685,20.992065 13.7377305,20.9897978 C13.5425775,20.9756281 13.3474245,20.9665595 13.1528506,20.9461551 C12.4475201,20.8730393 11.7665113,20.6996019 11.1046124,20.4553159 C10.0541448,20.0681991 9.0945942,19.5206811 8.18889886,18.8779425 C7.4169731,18.3298577 6.69716536,17.7194261 6.01499841,17.0676189 C5.21701364,16.3058547 4.47288415,15.4964802 3.76871182,14.651398 C3.08017488,13.8250198 2.44259779,12.9640675 1.88030228,12.0509707 C1.21377074,10.968404 0.6636361,9.83539302 0.326027159,8.6099955 C0.171989461,8.05114168 0.0660161566,7.48321925 0.0272171874,6.90509461 L0,6.50777562 L0,6.21021146 Z" id="Fill-1" fill="#FFFFFF" mask="url(#mask-2)"></path>
            </g>
        </g>
    </g>
</svg>