<?xml version="1.0" encoding="UTF-8"?>
<svg width="618px" height="370px" viewBox="0 0 618 370" version="1.1" xmlns="http://www.w3.org/2000/svg" xmlns:xlink="http://www.w3.org/1999/xlink">
    <!-- Generator: Sketch 49.3 (51167) - http://www.bohemiancoding.com/sketch -->
    <title>Group 9</title>
    <desc>Created with Sketch.</desc>
    <defs>
        <polygon id="path-1" points="0 199 98 199 98 0 0 0"></polygon>
    </defs>
    <g id="Page-1" stroke="none" stroke-width="1" fill="none" fill-rule="evenodd">
        <g id="Home---Vordem" transform="translate(-627.000000, -114.000000)">
            <g id="Group-9" transform="translate(627.000000, 114.000000)">
                <g id="Group-16" transform="translate(131.000000, 0.000000)">
                    <path d="M24.7342385,276.018225 L462.266655,276.018225 L462.266655,27.0934053 L24.7342385,27.0934053 L24.7342385,276.018225 Z M478.470798,0 L8.52920183,0 C3.83791743,0 0,3.81002398 0,8.46652278 L0,331.052398 C0,335.709784 3.83791743,339.518921 8.52920183,339.518921 L478.470798,339.518921 C483.162083,339.518921 487,335.709784 487,331.052398 L487,8.46652278 C487,3.81002398 483.162083,0 478.470798,0 Z" id="Fill-1" fill="#EF4554"></path>
                    <path d="M296.99074,362.919868 C299.508842,366.849676 297.731516,369.999556 293.041125,369.999556 L193.958518,369.999556 C189.267233,369.999556 187.4908,366.849676 190.008903,362.919868 L194.515217,355.933345 C197.034213,352.004424 202.932721,348.832362 207.624006,348.832362 L279.37653,348.832362 C284.066921,348.832362 289.966323,352.004424 292.484426,355.933345 L296.99074,362.919868 Z" id="Fill-3" fill="#EF4554"></path>
                    <polygon id="Fill-4" fill="#2EAFD2" points="149.701119 90.9472422 446.369009 90.9472422 446.369009 45.6954436 149.701119 45.6954436"></polygon>
                    <polygon id="Fill-5" fill="#2EAFD2" points="66.598367 90.9472422 135.403872 90.9472422 135.403872 45.6954436 66.598367 45.6954436"></polygon>
                    <path d="M89.094282,68.1289784 C89.094282,80.60694 78.9208967,90.7238225 66.3714875,90.7238225 C53.8229719,90.7238225 43.6504802,80.60694 43.6504802,68.1289784 C43.6504802,55.6501295 53.8229719,45.5341343 66.3714875,45.5341343 C78.9208967,45.5341343 89.094282,55.6501295 89.094282,68.1289784" id="Fill-6" fill="#14C072" style="mix-blend-mode: multiply;"></path>
                    <polygon id="Fill-7" fill="#2EAFD2" points="38.8974495 264.856115 135.403872 264.856115 135.403872 100.707434 38.8974495 100.707434"></polygon>
                    <polygon id="Fill-8" fill="#EF4554" points="149.701119 211.618705 238.165339 211.618705 238.165339 105.143885 149.701119 105.143885"></polygon>
                    <polygon id="Fill-9" fill="#14C072" points="357.904789 260.419664 446.369009 260.419664 446.369009 105.143885 357.904789 105.143885"></polygon>
                    <polygon id="Fill-10" fill="#EF4554" points="149.701119 260.419664 238.165339 260.419664 238.165339 223.153477 149.701119 223.153477"></polygon>
                    <polygon id="Fill-11" fill="#14C072" points="254.249743 260.419664 342.713963 260.419664 342.713963 153.944844 254.249743 153.944844"></polygon>
                    <polygon id="Fill-12" fill="#EF4554" points="254.249743 142.410072 342.713963 142.410072 342.713963 105.143885 254.249743 105.143885"></polygon>
                    <path d="M382.031663,52.3501199 C378.329569,52.3501199 375.329828,49.3705995 375.329828,45.6954436 C375.329828,42.0202878 378.329569,39.0407674 382.031663,39.0407674 C385.733756,39.0407674 388.733497,42.0202878 388.733497,45.6954436 C388.733497,49.3705995 385.733756,52.3501199 382.031663,52.3501199 Z" id="Fill-13" fill="#EF4554" style="mix-blend-mode: multiply;"></path>
                    <path d="M409.285791,45.6954436 C409.285791,49.3705995 406.28605,52.3501199 402.583956,52.3501199 C398.881863,52.3501199 395.882121,49.3705995 395.882121,45.6954436 C395.882121,42.0202878 398.881863,39.0407674 402.583956,39.0407674 C406.28605,39.0407674 409.285791,42.0202878 409.285791,45.6954436" id="Fill-14" fill="#EF4554" style="mix-blend-mode: multiply;"></path>
                    <path d="M429.838085,45.6954436 C429.838085,49.3705995 426.838343,52.3501199 423.13625,52.3501199 C419.434156,52.3501199 416.434415,49.3705995 416.434415,45.6954436 C416.434415,42.0202878 419.434156,39.0407674 423.13625,39.0407674 C426.838343,39.0407674 429.838085,42.0202878 429.838085,45.6954436" id="Fill-15" fill="#EF4554" style="mix-blend-mode: multiply;"></path>
                    <ellipse id="Oval" fill="#32B7D8" fill-rule="nonzero" style="mix-blend-mode: multiply;" cx="217.586239" cy="158.381295" rx="29.0412844" ry="28.8369305"></ellipse>
                </g>
                <g id="Group-16" transform="translate(0.000000, 171.000000)">
                    <path d="M98,188.208243 C98,194.143709 93.1216814,199 87.159292,199 L10.840708,199 C4.87831858,199 0,194.143709 0,188.208243 L0,10.791757 C0,4.85629067 4.87831858,0 10.840708,0 L87.159292,0 C93.1216814,0 98,4.85629067 98,10.791757 L98,188.208243 Z" id="Fill-1" fill="#EF4554"></path>
                    <path d="M58.8,185.229911 C58.8,190.382073 54.6122093,194.558036 49.4454545,194.558036 C44.2786998,194.558036 40.0909091,190.382073 40.0909091,185.229911 C40.0909091,180.077749 44.2786998,175.901786 49.4454545,175.901786 C54.6122093,175.901786 58.8,180.077749 58.8,185.229911" id="Fill-3" fill="#FFFFFF"></path>
                    <mask id="mask-2" fill="white">
                        <use xlink:href="#path-1"></use>
                    </mask>
                    <g id="Clip-6"></g>
                    <polygon id="Fill-5" fill="#FFFFFF" mask="url(#mask-2)" points="4.45454545 169.683036 94.4363636 169.683036 94.4363636 12.4375 4.45454545 12.4375"></polygon>
                    <polygon id="Fill-7" fill="#15C072" style="mix-blend-mode: multiply;" mask="url(#mask-2)" points="4.45454545 47.0848214 94.4363636 47.0848214 94.4363636 12.4375 4.45454545 12.4375"></polygon>
                    <path d="M69.4909091,14.6584821 C69.4909091,16.3757455 68.1252036,17.7678571 66.4405138,17.7678571 L32.4503953,17.7678571 C30.7657055,17.7678571 29.4,16.3757455 29.4,14.6584821 L29.4,12.8816964 C29.4,11.164433 30.7657055,9.77232143 32.4503953,9.77232143 L66.4405138,9.77232143 C68.1252036,9.77232143 69.4909091,11.164433 69.4909091,12.8816964 L69.4909091,14.6584821 Z" id="Fill-8" fill="#EF4554" mask="url(#mask-2)"></path>
                    <path d="M37.4181818,47.5290179 C37.4181818,54.6435423 31.6346752,60.4107143 24.5,60.4107143 C17.3653248,60.4107143 11.5818182,54.6435423 11.5818182,47.5290179 C11.5818182,40.4144934 17.3653248,34.6473214 24.5,34.6473214 C31.6346752,34.6473214 37.4181818,40.4144934 37.4181818,47.5290179" id="Fill-9" fill="#EF4554" style="mix-blend-mode: multiply;" mask="url(#mask-2)"></path>
                    <polygon id="Fill-10" fill="#EF4554" mask="url(#mask-2)" points="11.5818182 84.3973214 87.3090909 84.3973214 87.3090909 63.9642857 11.5818182 63.9642857"></polygon>
                    <polygon id="Fill-11" fill="#2EAFD2" mask="url(#mask-2)" points="11.5818182 161.6875 47.2181818 161.6875 47.2181818 88.8392857 11.5818182 88.8392857"></polygon>
                    <polygon id="Fill-12" fill="#EF4554" mask="url(#mask-2)" points="51.6727273 103.941964 87.3090909 103.941964 87.3090909 88.8392857 51.6727273 88.8392857"></polygon>
                    <polygon id="Fill-13" fill="#15C072" mask="url(#mask-2)" points="51.6727273 160.799107 87.3090909 160.799107 87.3090909 108.383929 51.6727273 108.383929"></polygon>
                    <polygon id="Fill-14" fill="#2EAFD2" style="mix-blend-mode: multiply;" mask="url(#mask-2)" points="94.4363636 17.2302362 94.4363636 47.0848214 76.6181818 47.0848214 94.2308029 16.8794643"></polygon>
                    <polygon id="Fill-15" fill="#2EAFD2" style="mix-blend-mode: multiply;" mask="url(#mask-2)" points="64.1454545 47.0848214 76.1727273 26.6517857 88.2 47.0848214"></polygon>
                </g>
            </g>
        </g>
    </g>
</svg>