<?xml version="1.0" encoding="UTF-8"?>
<svg width="32px" height="32px" viewBox="0 0 32 32" version="1.1" xmlns="http://www.w3.org/2000/svg" xmlns:xlink="http://www.w3.org/1999/xlink">
    <!-- Generator: Sketch 49 (51002) - http://www.bohemiancoding.com/sketch -->
    <title>Avatar</title>
    <desc>Created with Sketch.</desc>
    <defs>
        <rect id="path-1" x="0" y="0" width="32" height="32" rx="16"></rect>
    </defs>
    <g id="Symbols" stroke="none" stroke-width="1" fill="none" fill-rule="evenodd">
        <g id="lider" transform="translate(-2.000000, -2.000000)">
            <g id="Avatar" transform="translate(2.000000, 2.000000)">
                <mask id="mask-2" fill="white">
                    <use xlink:href="#path-1"></use>
                </mask>
                <use id="Rectangle" fill="#959595" fill-rule="evenodd" xlink:href="#path-1"></use>
                <g id="user" stroke-width="1" fill-rule="evenodd" mask="url(#mask-2)" fill="#DCDCDC">
                    <g transform="translate(2.064516, 3.096774)" fill-rule="nonzero" id="Shape">
                        <path d="M23.0430302,15.8420867 L21.8950948,15.5141129 C23.5051331,13.2762702 23.733871,11.0119718 23.733871,9.7983871 C23.733871,4.39016734 19.3509435,0 13.9354839,0 C8.52726411,0 4.13709677,4.38292742 4.13709677,9.7983871 C4.13709677,11.012244 4.36561694,13.2759435 5.97587298,15.5141129 L4.8279375,15.8420867 C1.1583871,16.8905141 0,20.2276815 0,22.2426109 L0,23.6405685 C0,25.9732379 1.89772984,35.0967742 4.23039919,35.0967742 L23.6405141,35.0967742 C25.9732379,35.0967742 27.8709677,25.9732379 27.8709677,23.6405685 L27.8709677,22.2426109 C27.8709677,20.2694879 26.7427923,16.8991694 23.0430302,15.8420867 Z M13.9354839,2.61290323 C17.9039395,2.61290323 21.1209677,5.82998589 21.1209677,9.7983871 C21.1209677,13.7667883 17.9039395,16.983871 13.9354839,16.983871 C9.96702823,16.983871 6.75,13.7667883 6.75,9.7983871 C6.75,5.82998589 9.96702823,2.61290323 13.9354839,2.61290323 Z M25.2580645,29.8341169 C25.2580645,30.7274032 24.5338548,31.4516129 23.6405685,31.4516129 L4.23039919,31.4516129 C3.3371129,31.4516129 2.61290323,30.7274032 2.61290323,29.8341169 L2.61290323,22.2426109 C2.61290323,20.4371492 3.80977621,18.8504093 5.54577823,18.3544476 L8.05541734,17.6374234 C8.85572782,18.2390444 10.9103407,19.5967742 13.9354839,19.5967742 C16.960627,19.5967742 19.0152399,18.2390444 19.8155504,17.6374234 L22.3251895,18.3544476 C24.0611915,18.8504637 25.2580645,20.4371492 25.2580645,22.2426109 L25.2580645,29.8341169 Z"></path>
                    </g>
                </g>
            </g>
        </g>
    </g>
</svg>