<?xml version="1.0" encoding="UTF-8"?>
<svg width="89px" height="42px" viewBox="0 0 89 42" version="1.1" xmlns="http://www.w3.org/2000/svg" xmlns:xlink="http://www.w3.org/1999/xlink">
    <!-- Generator: Sketch 49.3 (51167) - http://www.bohemiancoding.com/sketch -->
    <title>Group 70 Copy 2</title>
    <desc>Created with Sketch.</desc>
    <defs>
        <path d="M14.2491329,0 L14.2491329,10.7621111 C13.7963137,10.4268889 13.4069368,10.0877778 12.9715643,9.82333333 C10.1214205,8.09588889 6.07935512,8.44977778 3.5139085,10.7325556 C0.447267974,13.4625556 -0.14671024,17.0784444 0.0277559913,20.9906667 L7.28237908,20.9906667 C7.25620915,20.7845556 7.23321133,20.6118889 7.21417865,20.4384444 C7.07222658,19.1177778 7.20862745,17.843 7.89776906,16.681 C9.26574292,14.3741111 12.5877386,14.2535556 14.0437386,16.4624444 C14.1785534,16.6677778 14.2610283,16.9485556 14.2657865,17.1958889 C14.2895773,18.3018889 14.2745098,19.4078889 14.2768889,20.5138889 C14.2768889,20.6694444 14.2911634,20.8265556 14.2983007,21 L21.4117647,21 L21.4117647,0 L14.2491329,0 Z" id="path-1"></path>
        <path d="M5.24112418,1.79146154 C2.26409586,3.84219231 0.980183007,6.77330769 0.808095861,10.2552692 C0.778753813,10.8755769 0.800165577,11.5023462 0.800165577,12.1153846 L21.4117647,12.1153846 C21.3110501,10.6566923 21.3110501,9.25453846 21.1040697,7.87984615 C20.7305534,5.49796154 19.6536209,3.44803846 17.6742222,1.932 C16.1666754,0.782653846 14.4172549,0.226153846 12.5306405,0.0573461538 C12.1031983,0.0201923077 11.6797211,0 11.2617952,0 C9.10713725,0 7.07381264,0.522576923 5.24112418,1.79146154 Z M11.5195294,5.58276923 C13.3046362,5.67484615 14.2951285,7.19653846 14.2308932,8.54215385 L8.01751634,8.54215385 C8.08175163,6.82984615 9.71142484,5.48423077 11.5195294,5.58276923 Z" id="path-3"></path>
        <path d="M5.24112418,1.79146154 C2.26409586,3.84219231 0.980183007,6.77330769 0.808095861,10.2552692 C0.778753813,10.8755769 0.800165577,11.5023462 0.800165577,12.1153846 L21.4117647,12.1153846 C21.3110501,10.6566923 21.3110501,9.25453846 21.1040697,7.87984615 C20.7305534,5.49796154 19.6536209,3.44803846 17.6742222,1.932 C16.1666754,0.782653846 14.4172549,0.226153846 12.5306405,0.0573461538 C12.1039913,0.0201923077 11.6797211,0 11.2617952,0 C9.10713725,0 7.07381264,0.522576923 5.24112418,1.79146154 Z M11.5195294,5.58276923 C13.3046362,5.67484615 14.2951285,7.19653846 14.2308932,8.54215385 L8.01751634,8.54215385 C8.08175163,6.82984615 9.71142484,5.48423077 11.5195294,5.58276923 Z" id="path-5"></path>
        <path d="M3.67965142,2.34715385 C0.371930283,5.04080769 -0.37351634,9.62123077 0.153847495,12.1113462 C2.53134641,12.1121538 4.91043137,12.1121538 7.2379695,12.1121538 C7.2379695,11.403 7.20704139,10.7180769 7.24589978,10.038 C7.29982571,9.06634615 7.53535512,8.13588462 8.08730283,7.308 C9.14916776,5.71038462 11.4180218,5.40184615 12.8288192,6.66426923 C13.3926623,7.16988462 13.7304924,7.81442308 13.9533333,8.52196154 C14.3189194,9.68584615 14.3022658,10.8755769 14.1753813,12.1153846 L21.3102571,12.1153846 C21.8154161,8.23603846 20.4704401,3.79938462 16.5243312,1.49019231 C14.8105969,0.487038462 12.7828235,0 10.7598083,0 C8.16343355,0 5.57657516,0.802846154 3.67965142,2.34715385 Z" id="path-7"></path>
        <path d="M3.67965142,2.34715385 C0.371930283,5.04080769 -0.37351634,9.62123077 0.153847495,12.1113462 C2.53134641,12.1121538 4.91043137,12.1121538 7.2379695,12.1121538 C7.2379695,11.403 7.20704139,10.7180769 7.24589978,10.038 C7.29982571,9.06634615 7.53535512,8.13588462 8.08730283,7.308 C9.14916776,5.71038462 11.4180218,5.40184615 12.8288192,6.66426923 C13.3926623,7.16988462 13.7304924,7.81442308 13.9533333,8.52196154 C14.3189194,9.68584615 14.3022658,10.8755769 14.1753813,12.1153846 L21.3102571,12.1153846 C21.8154161,8.23603846 20.4704401,3.79938462 16.5243312,1.49019231 C14.81139,0.487038462 12.7828235,0 10.7598083,0 C8.16343355,0 5.57578214,0.802846154 3.67965142,2.34715385 Z" id="path-9"></path>
        <path d="M11.8300358,0.481384615 C11.6614629,0.843230769 11.3739437,1.19215385 11.0541279,1.42719231 C9.62047059,2.48930769 7.3786087,1.96026923 6.52944246,0.371538462 C6.37819949,0.0896538462 6.21671611,0.00242307692 5.92210742,0.00403846154 C4.61842455,0.0129230769 3.31552941,0.0113076923 2.01184655,0.0105 C1.49116113,0.0105 0.96968798,0.00969230769 0.449002558,0.00969230769 C0.308,0.00969230769 0.164634271,0.0250384615 0,0.0339230769 C0.0133913043,0.172846154 0.0102404092,0.277846154 0.0370230179,0.373961538 C0.69713555,2.70011538 1.9472532,4.58365385 3.99375959,5.83153846 C6.45618414,7.33303846 9.12262916,7.56969231 11.8591816,6.95019231 C15.3424962,6.16026923 17.6458005,3.58373077 18.1176471,0.00888461538 L17.5717545,0.00888461538 C15.9080818,0.00888461538 14.2451969,0.0226153846 12.5815243,0 C12.5744348,0 12.5673453,0 12.5602558,0 C12.1900256,0 12.0001841,0.110653846 11.8300358,0.481384615 Z" id="path-11"></path>
        <path d="M12.5602558,0 C12.1908133,0 12.0001841,0.110653846 11.8300358,0.481384615 C11.6614629,0.843230769 11.3739437,1.19215385 11.0541279,1.42719231 C9.62047059,2.48930769 7.3786087,1.96026923 6.52944246,0.371538462 C6.37819949,0.0896538462 6.21671611,0.00242307692 5.92210742,0.00403846154 C4.61842455,0.0129230769 3.31552941,0.0113076923 2.01184655,0.0105 C1.49116113,0.0105 0.96968798,0.00969230769 0.449002558,0.00969230769 C0.308,0.00969230769 0.164634271,0.0250384615 0,0.0339230769 C0.0133913043,0.172846154 0.0102404092,0.277846154 0.0370230179,0.373961538 C0.69713555,2.70011538 1.9472532,4.58365385 3.99375959,5.83153846 C6.45618414,7.33303846 9.12262916,7.56969231 11.8591816,6.95019231 C15.3424962,6.16026923 17.6458005,3.58373077 18.1176471,0.00888461538 L17.5717545,0.00888461538 C15.9080818,0.00888461538 14.2451969,0.0226153846 12.5815243,0 C12.5752225,0 12.5673453,0 12.5602558,0 Z" id="path-13"></path>
        <polygon id="path-15" points="0 0.000807692308 7.41176471 0.000807692308 7.41176471 12.1153846 0 12.1153846"></polygon>
        <path d="M7.12517647,0 C4.87282353,0.00726923077 2.61964706,0.00484615385 0.368117647,0.00646153846 C0.255294118,0.00646153846 0.144117647,0.0290769231 0,0.0436153846 C0.0741176471,0.254423077 0.130117647,0.424038462 0.192705882,0.591230769 C0.727176471,2.00065385 1.26329412,3.40926923 1.79858824,4.81869231 C2.67647059,7.12869231 3.55188235,9.44111538 4.44129412,11.7462692 C4.49894118,11.8932692 4.68011765,12.0976154 4.80611765,12.1000385 C7.02717647,12.1202308 9.24741176,12.1145769 11.5294118,12.1145769 C11.4997647,11.9724231 11.4907059,11.8819615 11.4635294,11.7987692 C10.1928235,7.98080769 8.91717647,4.16446154 7.65635294,0.343269231 C7.55835294,0.0468461538 7.39941176,0 7.13094118,0 C7.12929412,0 7.12682353,0 7.12517647,0 Z" id="path-17"></path>
        <path d="M7.12517647,0 C4.87282353,0.00726923077 2.61964706,0.00484615385 0.368117647,0.00646153846 C0.255294118,0.00646153846 0.144117647,0.0290769231 0,0.0436153846 C0.0741176471,0.254423077 0.130117647,0.424038462 0.192705882,0.591230769 C0.727176471,2.00065385 1.26329412,3.40926923 1.79858824,4.81869231 C2.67647059,7.12869231 3.55188235,9.44111538 4.44129412,11.7462692 C4.49894118,11.8932692 4.68011765,12.0976154 4.80611765,12.1000385 C7.02717647,12.1202308 9.24741176,12.1145769 11.5294118,12.1145769 C11.4997647,11.9724231 11.4907059,11.8819615 11.4635294,11.7987692 C10.1928235,7.98080769 8.91717647,4.16446154 7.65635294,0.343269231 C7.55835294,0.0468461538 7.39941176,0 7.13094118,0 C7.12929412,0 7.12682353,0 7.12517647,0 Z" id="path-19"></path>
        <path d="M3.88294118,0.469269231 C2.86011765,3.58130769 1.81258824,6.68526923 0.773294118,9.79003846 C0.521294118,10.5452308 0.268470588,11.2996154 0,12.1040769 L0.475176471,12.1040769 C2.43435294,12.1040769 4.39352941,12.0943846 6.35105882,12.1153846 C6.70682353,12.1194231 6.82952941,11.9821154 6.94152941,11.6953846 C8.12164706,8.66896154 9.31329412,5.64657692 10.5016471,2.62257692 C10.8368235,1.76965385 11.172,0.918346154 11.5294118,0.00969230769 L10.9570588,0.00969230769 C8.82741176,0.00969230769 6.69776471,0.0193846154 4.56811765,0 C4.56152941,0 4.55494118,0 4.54835294,0 C4.17611765,0 4.00317647,0.105 3.88294118,0.469269231 Z" id="path-21"></path>
        <path d="M4.54917647,0 C4.17611765,0 4.00235294,0.105 3.88294118,0.469269231 C2.86011765,3.58130769 1.81258824,6.68526923 0.773294118,9.79003846 C0.521294118,10.5452308 0.268470588,11.2996154 0,12.1040769 L0.475176471,12.1040769 C2.43435294,12.1040769 4.39352941,12.0943846 6.35105882,12.1153846 C6.70682353,12.1194231 6.82952941,11.9821154 6.94152941,11.6953846 C8.12164706,8.66896154 9.31329412,5.64657692 10.5016471,2.62257692 C10.8368235,1.76965385 11.172,0.918346154 11.5294118,0.00969230769 L10.9570588,0.00969230769 C8.82741176,0.00969230769 6.69776471,0.0193846154 4.56811765,0 C4.56152941,0 4.55494118,0 4.54917647,0 Z" id="path-23"></path>
        <path d="M4.09623529,2.58254949e-14 C1.84223529,0.00403846154 -0.00494117647,1.82296154 -1.5360231e-14,4.03442308 C0.00494117647,6.24669231 1.84470588,8.06238462 4.09952941,8.07692308 C6.37,8.09146154 8.23529412,6.26688462 8.23529412,4.03038462 C8.23529412,1.78823077 6.40376471,-0.000807692308 4.10529412,2.58254949e-14 C4.102,2.58254949e-14 4.09952941,2.58254949e-14 4.09623529,2.58254949e-14 Z" id="path-25"></path>
        <path d="M4.09623529,0 C1.84223529,0.00403846154 -0.00494117647,1.82296154 -1.5360231e-14,4.03442308 C0.00494117647,6.24669231 1.84470588,8.06238462 4.09952941,8.07692308 C6.37,8.09146154 8.23529412,6.26688462 8.23529412,4.03038462 C8.23529412,1.78823077 6.40294118,0 4.10447059,0 C4.10282353,0 4.09952941,0 4.09623529,0 Z" id="path-27"></path>
        <path d="M0,0 C0.673647059,1.575 1.32258824,3.10880769 1.99705882,4.63453846 C2.044,4.73953846 2.29352941,4.82838462 2.45,4.83 C3.09152941,4.83726923 3.73305882,4.83726923 4.37541176,4.83726923 C5.10423529,4.83726923 5.83305882,4.83726923 6.56270588,4.84615385 C6.90364706,4.851 7.03952941,4.73711538 7.14823529,4.47219231 C7.49658824,3.61280769 7.87458824,2.76230769 8.24023529,1.90857692 C8.50705882,1.28423077 8.77552941,0.659076923 9.05882353,0 L0,0 Z" id="path-29"></path>
    </defs>
    <g id="Symbols" stroke="none" stroke-width="1" fill="none" fill-rule="evenodd">
        <g id="Vordem-Header" transform="translate(-75.000000, -17.000000)">
            <g id="Group-70-Copy-2" transform="translate(75.000000, 17.000000)">
                <g id="Group-5" transform="translate(8.235294, 16.961538)" fill="#FEFEFE">
                    <path d="M55.6007595,0.606950133 L55.6007595,2.20874324 C57.2468398,0.62332679 59.2029586,0.0906954907 61.3772231,0.139045623 C63.5770577,0.188175597 65.4564659,0.928244562 66.9331439,2.55187321 C68.037456,1.51468488 69.3207595,0.822186207 70.7958393,0.458780371 C72.3516249,0.0727591512 73.9273873,-0.0247209549 75.4919627,0.351162334 C78.2902994,1.02182546 79.8428888,2.83105623 80.4341992,5.44898196 C80.5628492,6.01982546 80.6275737,6.61406419 80.6371625,7.19894483 C80.6643308,8.80463714 80.6467513,10.4103294 80.6467513,12.0472154 L73.3017169,12.0472154 C73.2929272,11.8787698 73.2777449,11.7142233 73.2737496,11.5488971 C73.2545719,10.559279 73.2777449,9.56654164 73.208226,8.58004297 C73.1243238,7.37362918 72.4083588,6.5664939 71.355187,6.36763448 C69.6955224,6.05569814 68.1173628,7.29252573 68.1157647,8.90835597 C68.1149656,9.94086525 68.1157647,10.9725947 68.1157647,12.0409767 L60.755548,12.0409767 C60.755548,11.8748706 60.7603425,11.7095443 60.754749,11.5449979 C60.7203891,10.4423029 60.7803192,9.3271305 60.6245009,8.24003236 C60.4287292,6.88310928 59.4282959,6.22492361 58.033922,6.34267958 C56.7242493,6.45263714 55.6135446,7.5553321 55.6023576,8.77110398 C55.5919697,9.84650451 55.6007595,10.9211252 55.6007595,12.0362976 L48.2453372,12.0362976 L48.2453372,0.606950133 L55.6007595,0.606950133 Z" id="Fill-1"></path>
                    <path d="M0.0281271986,22.6062605 C-0.148466861,18.683661 0.450834246,15.0574011 3.54083075,12.3209395 C6.12581619,10.0321066 10.1986665,9.67727905 13.0705174,11.4093056 C13.5092058,11.6736716 13.9007492,12.0136822 14.3586153,12.3505735 L14.3586153,1.55991565 L21.5749997,1.55991565 L21.5749997,22.6156186 L14.4073584,22.6156186 C14.3993677,22.4409342 14.3865826,22.2841862 14.3865826,22.1274382 C14.3833864,21.0185045 14.3977696,19.9095708 14.3745966,18.8006371 C14.3690031,18.5534276 14.2866991,18.2711252 14.1508575,18.0660271 C12.6837684,15.851279 9.33567292,15.9713745 7.95807944,18.2851623 C7.26368923,19.4502446 7.1262495,20.7284037 7.2692827,22.0525735 C7.28846034,22.226478 7.31163331,22.3988228 7.33800256,22.6062605 L0.0281271986,22.6062605 Z" id="Fill-3"></path>
                </g>
                <g id="Group-9" transform="translate(8.235294, 18.576923)">
                    <mask id="mask-2" fill="white">
                        <use xlink:href="#path-1"></use>
                    </mask>
                    <g id="Clip-7"></g>
                    <polygon id="Fill-6" fill="#FEFEFE" mask="url(#mask-2)" points="-471.851852 896 543.224401 896 543.224401 -42 -471.851852 -42"></polygon>
                    <polygon id="Fill-8" fill="#FEFEFE" mask="url(#mask-2)" points="-3.96514161 24.8888889 25.3769063 24.8888889 25.3769063 -3.88888889 -3.96514161 -3.88888889"></polygon>
                </g>
                <path d="M40.1552385,25.5037602 C40.2193775,23.791485 41.8466082,22.4458952 43.6512109,22.5444318 C45.434434,22.6356993 46.42265,24.1581704 46.358511,25.5037602 L40.1552385,25.5037602 Z M53.2213861,24.8414651 C52.8484296,22.4588181 51.773903,20.4089339 49.797471,18.893732 C48.2921837,17.7452153 46.5445934,17.1879182 44.6608066,17.0191137 C42.039817,16.7865028 39.5684852,17.2379942 37.3830075,18.7531962 C34.4104411,20.803888 33.1284525,23.7357553 32.9566233,27.2160354 C32.9273253,27.8371389 32.9487049,28.4638963 32.9487049,29.0769231 L53.5294118,29.0769231 C53.4288481,27.6182585 53.4288481,26.2161313 53.2213861,24.8414651 Z" id="Fill-10" fill="#FEFEFE"></path>
                <g id="Group-14" transform="translate(32.117647, 16.961538)">
                    <mask id="mask-4" fill="white">
                        <use xlink:href="#path-3"></use>
                    </mask>
                    <g id="Clip-13"></g>
                    <polygon id="Fill-12" fill="#FEFEFE" mask="url(#mask-4)" points="-495.642702 932.076923 519.433551 932.076923 519.433551 -42 -495.642702 -42"></polygon>
                </g>
                <g id="Group-17" transform="translate(32.117647, 16.961538)">
                    <mask id="mask-6" fill="white">
                        <use xlink:href="#path-5"></use>
                    </mask>
                    <g id="Clip-16"></g>
                    <polygon id="Fill-15" fill="#FEFEFE" mask="url(#mask-6)" points="-3.17211329 16.1538462 25.3769063 16.1538462 25.3769063 -4.03846154 -3.17211329 -4.03846154"></polygon>
                </g>
                <path d="M37.2341794,12.1153846 C37.3610632,10.8763753 37.3777167,9.68582787 37.0121328,8.5219345 C36.7892932,7.81439071 36.4522581,7.1698474 35.8884183,6.66422821 C34.4768363,5.40179564 32.2079957,5.71033642 31.1453441,7.30796383 C30.5941927,8.13585467 30.3586647,9.06713091 30.3047391,10.0379844 C30.2658809,10.7188741 30.2968088,11.4029946 30.2968088,12.1121538 C27.9684915,12.1121538 25.5902137,12.1121538 23.2127289,12.1113461 C22.6853682,9.621212 23.4308104,5.04075446 26.7393049,2.34627265 C30.1128273,-0.399094165 35.6687508,-0.801327961 39.5839084,1.49011236 C43.5284078,3.79932204 44.8741689,8.23520157 44.3690129,12.1153846 L37.2341794,12.1153846 Z" id="Fill-18" fill="#FEFEFE"></path>
                <g id="Group-22" transform="translate(23.058824, 0.000000)">
                    <mask id="mask-8" fill="white">
                        <use xlink:href="#path-7"></use>
                    </mask>
                    <g id="Clip-21"></g>
                    <polygon id="Fill-20" fill="#FEFEFE" mask="url(#mask-8)" points="-486.91939 949.038462 528.156863 949.038462 528.156863 -25.0384615 -486.91939 -25.0384615"></polygon>
                </g>
                <g id="Group-25" transform="translate(23.058824, 0.000000)">
                    <mask id="mask-10" fill="white">
                        <use xlink:href="#path-9"></use>
                    </mask>
                    <g id="Clip-24"></g>
                    <polygon id="Fill-23" fill="#FEFEFE" mask="url(#mask-10)" points="-3.96514161 16.1538462 25.3769063 16.1538462 25.3769063 -4.03846154 -3.96514161 -4.03846154"></polygon>
                </g>
                <path d="M52.7058824,34.7406156 C52.2340358,38.3145886 49.9315192,40.8910799 46.4474169,41.6809885 C43.7108645,42.3004772 41.0444194,42.0638276 38.5819949,40.5631628 C36.5362762,39.3144934 35.2853708,37.4309894 34.6252583,35.1048782 C34.5984757,35.0095722 34.6024143,34.9037665 34.5882353,34.7648459 C34.7528696,34.7567692 34.8962353,34.7414233 35.0372379,34.7414233 C36.8623939,34.7406156 38.6851867,34.747077 40.5103427,34.7349619 C40.8057391,34.7333465 40.9672225,34.8213834 41.1176777,35.1024551 C41.966844,36.6911568 44.2087059,37.2201856 45.6423632,36.1588973 C45.9613913,35.9230555 46.2504859,35.5741388 46.4182711,35.2122993 C46.5915703,34.8343062 46.7853504,34.7260774 47.1705473,34.7309235 C48.8334322,34.7535385 50.4963171,34.7406156 52.1599898,34.7406156 L52.7058824,34.7406156 Z" id="Fill-26" fill="#FEFEFE"></path>
                <g id="Group-30" transform="translate(34.588235, 34.730769)">
                    <mask id="mask-12" fill="white">
                        <use xlink:href="#path-11"></use>
                    </mask>
                    <g id="Clip-29"></g>
                    <polygon id="Fill-28" fill="#FEFEFE" mask="url(#mask-12)" points="-494.690537 913.5 513.595908 913.5 513.595908 -60.5769231 -494.690537 -60.5769231"></polygon>
                </g>
                <g id="Group-33" transform="translate(34.588235, 34.730769)">
                    <mask id="mask-14" fill="white">
                        <use xlink:href="#path-13"></use>
                    </mask>
                    <g id="Clip-32"></g>
                    <polygon id="Fill-31" fill="#FEFEFE" mask="url(#mask-14)" points="-3.93861893 11.3076923 22.056266 11.3076923 22.056266 -4.03846154 -3.93861893 -4.03846154"></polygon>
                </g>
                <polygon id="Fill-34" fill="#FEFEFE" points="46.9411765 12.9230769 54.3529412 12.9230769 54.3529412 0.807692308 46.9411765 0.807692308"></polygon>
                <g id="Group-39" transform="translate(46.941176, 0.807692)">
                    <mask id="mask-16" fill="white">
                        <use xlink:href="#path-15"></use>
                    </mask>
                    <g id="Clip-37"></g>
                    <polygon id="Fill-36" fill="#FEFEFE" mask="url(#mask-16)" points="-48.5882353 42 42.8235294 42 42.8235294 -0.807692308 -48.5882353 -0.807692308"></polygon>
                    <polygon id="Fill-38" fill="#FEFEFE" mask="url(#mask-16)" points="-4.11764706 16.1538462 11.5294118 16.1538462 11.5294118 -4.03846154 -4.11764706 -4.03846154"></polygon>
                </g>
                <path d="M11.5294118,12.9223843 C9.24741176,12.9223843 7.02717647,12.9280382 4.80611765,12.907038 C4.68094118,12.9054226 4.49894118,12.7018824 4.44129412,12.5540734 C3.55105882,10.248092 2.67647059,7.93645658 1.79941176,5.62643661 C1.26329412,4.21700134 0.727176471,2.80918147 0.192705882,1.39893851 C0.130117647,1.23174475 0.0741176471,1.0621279 0,0.851318386 C0.144941176,0.835972099 0.256117647,0.814164219 0.368117647,0.814164219 C2.62047059,0.81254882 4.87282353,0.815779617 7.12435294,0.807702624 C7.39694118,0.806894925 7.55835294,0.852933785 7.65635294,1.15097482 C8.91717647,4.97220018 10.1928235,8.78857934 11.4635294,12.6065739 C11.4907059,12.6897669 11.5005882,12.7794215 11.5294118,12.9223843" id="Fill-40" fill="#FEFEFE"></path>
                <g id="Group-44" transform="translate(0.000000, 0.807692)">
                    <mask id="mask-18" fill="white">
                        <use xlink:href="#path-17"></use>
                    </mask>
                    <g id="Clip-43"></g>
                    <polygon id="Fill-42" fill="#FEFEFE" mask="url(#mask-18)" points="0 42 91.4117647 42 91.4117647 -0.807692308 0 -0.807692308"></polygon>
                </g>
                <g id="Group-47" transform="translate(0.000000, 0.807692)">
                    <mask id="mask-20" fill="white">
                        <use xlink:href="#path-19"></use>
                    </mask>
                    <g id="Clip-46"></g>
                    <polygon id="Fill-45" fill="#FEFEFE" mask="url(#mask-20)" points="-4.11764706 16.1538462 15.6470588 16.1538462 15.6470588 -4.03846154 -4.11764706 -4.03846154"></polygon>
                </g>
                <path d="M23.0588235,0.817458456 C22.7014118,1.72610027 22.3662353,2.57820436 22.0310588,3.43030846 C20.8427059,6.4542684 19.6502353,9.47661298 18.4709412,12.502996 C18.3589412,12.7897229 18.2362353,12.9270288 17.8812941,12.9229904 C15.9229412,12.9019907 13.9637647,12.9124905 12.0045882,12.9124905 L11.5294118,12.9124905 C11.7978824,12.1080397 12.0507059,11.3528574 12.3027059,10.5976751 C13.342,7.49294695 14.3895294,4.38902653 15.4131765,1.27702929 C15.5342353,0.906303433 15.7112941,0.80453555 16.0975294,0.807766276 C18.2271765,0.827150635 20.3568235,0.817458456 22.4864706,0.817458456 L23.0588235,0.817458456 Z" id="Fill-48" fill="#FEFEFE"></path>
                <g id="Group-52" transform="translate(11.529412, 0.807692)">
                    <mask id="mask-22" fill="white">
                        <use xlink:href="#path-21"></use>
                    </mask>
                    <g id="Clip-51"></g>
                    <polygon id="Fill-50" fill="#FEFEFE" mask="url(#mask-22)" points="-11.5294118 42 79.8823529 42 79.8823529 -0.807692308 -11.5294118 -0.807692308"></polygon>
                </g>
                <g id="Group-55" transform="translate(11.529412, 0.807692)">
                    <mask id="mask-24" fill="white">
                        <use xlink:href="#path-23"></use>
                    </mask>
                    <g id="Clip-54"></g>
                    <polygon id="Fill-53" fill="#FEFEFE" mask="url(#mask-24)" points="-4.11764706 16.1538462 15.6470588 16.1538462 15.6470588 -4.03846154 -4.11764706 -4.03846154"></polygon>
                </g>
                <path d="M64.2352941,4.03034648 C64.2352941,6.26681987 62.3691787,8.09137508 60.1003579,8.07683679 C57.8447136,8.06149082 56.0049511,6.2466278 56.0000099,4.03357721 C55.9950687,1.82294966 57.8414194,0.0040482267 60.0970638,9.81321109e-06 C62.3988257,-0.00483628298 64.2352941,1.78579626 64.2352941,4.03034648" id="Fill-56" fill="#FEFEFE"></path>
                <g id="Group-60" transform="translate(56.000000, 0.000000)">
                    <mask id="mask-26" fill="white">
                        <use xlink:href="#path-25"></use>
                    </mask>
                    <g id="Clip-59"></g>
                    <polygon id="Fill-58" fill="#FEFEFE" mask="url(#mask-26)" points="-57.6470588 42.8076923 33.7647059 42.8076923 33.7647059 0 -57.6470588 0"></polygon>
                </g>
                <g id="Group-63" transform="translate(56.000000, 0.000000)">
                    <mask id="mask-28" fill="white">
                        <use xlink:href="#path-27"></use>
                    </mask>
                    <g id="Clip-62"></g>
                    <polygon id="Fill-61" fill="#FEFEFE" mask="url(#mask-28)" points="-4.11764706 12.1153846 12.3529412 12.1153846 12.3529412 -4.03846154 -4.11764706 -4.03846154"></polygon>
                </g>
                <path d="M7.41176471,19.3846154 L16.4705882,19.3846154 C16.1872941,20.0436722 15.9188235,20.6688069 15.652,21.293134 C15.2863529,22.1468387 14.9091765,22.9973127 14.56,23.856671 C14.4512941,24.121586 14.3154118,24.2354672 13.9744706,24.2306212 C12.6041176,24.2120448 11.2337647,24.2290058 9.86258824,24.2144678 C9.70529412,24.2128525 9.45576471,24.124009 9.40964706,24.0190122 C8.73352941,22.4941358 8.08541176,20.9595673 7.41176471,19.3846154" id="Fill-64" fill="#FEFEFE"></path>
                <g id="Group-69" transform="translate(7.411765, 19.384615)">
                    <mask id="mask-30" fill="white">
                        <use xlink:href="#path-29"></use>
                    </mask>
                    <g id="Clip-67"></g>
                    <polygon id="Fill-66" fill="#FEFEFE" mask="url(#mask-30)" points="-7.41176471 23.4230769 84 23.4230769 84 -19.3846154 -7.41176471 -19.3846154"></polygon>
                    <polygon id="Fill-68" fill="#FEFEFE" mask="url(#mask-30)" points="-4.11764706 8.88461538 13.1764706 8.88461538 13.1764706 -4.03846154 -4.11764706 -4.03846154"></polygon>
                </g>
            </g>
        </g>
    </g>
</svg>